<svg width="11" height="18" viewBox="0 0 11 18" fill="none" xmlns="http://www.w3.org/2000/svg">
<path opacity="0.7" fill-rule="evenodd" clip-rule="evenodd" d="M9.85478 2.56066C10.4406 1.97487 10.4406 1.02513 9.85478 0.43934C9.26899 -0.146447 8.31924 -0.146447 7.73346 0.43934L0.442033 7.73076C0.441134 7.73166 0.440237 7.73255 0.43934 7.73345C0.146445 8.02634 -1.66701e-06 8.41022 0 8.79411C-1.66496e-06 9.17799 0.146445 9.56188 0.43934 9.85478C0.44017 9.85561 0.441002 9.85644 0.441833 9.85726L7.73346 17.1489C8.31924 17.7347 9.26899 17.7347 9.85478 17.1489C10.4406 16.5631 10.4406 15.6134 9.85478 15.0276L3.62132 8.79411L9.85478 2.56066Z" fill="white"/>
</svg>
