<svg width="414" height="309" viewBox="0 0 414 309" fill="none" xmlns="http://www.w3.org/2000/svg">
<path opacity="0.69" d="M90.7942 -95.0276C168.412 -157.573 246.169 -213.399 309.233 -201.382C372.297 -189.364 416.377 -108.628 435.879 -28.5368C455.483 51.9689 459.189 130.773 402.013 183.25C344.93 236.131 222.314 264.043 129.393 245.219C36.4716 226.396 -53.7572 166.468 -59.2044 101.875C-65.0924 37.3805 12.7351 -32.3835 90.7942 -95.0276Z" fill="#69B713" fill-opacity="0.8"/>
<path opacity="0.69" d="M76.2198 -102.02C138.044 -171.441 201.114 -234.293 261.774 -229.121C322.434 -223.948 376.837 -149.445 408.269 -72.9997C439.864 3.83915 456.389 80.6774 411.91 138.094C367.583 195.891 258.152 236.087 168.588 227.372C79.0244 218.657 -14.8565 169.376 -30.6425 106.646C-46.8212 44.0591 13.9998 -32.4583 76.2198 -102.02Z" fill="#69B713"/>
</svg>
